<?xml version="1.0" encoding="utf-8"?>
<!-- Generator: Adobe Illustrator 24.1.3, SVG Export Plug-In . SVG Version: 6.00 Build 0)  -->
<svg version="1.1" id="Calque_1" xmlns="http://www.w3.org/2000/svg" xmlns:xlink="http://www.w3.org/1999/xlink" x="0px" y="0px"
	 viewBox="0 0 352 102" style="enable-background:new 0 0 352 102;" xml:space="preserve">
<style type="text/css">
	.st0{fill:#161615;}
</style>
<g id="Groupe_1" transform="translate(-104.399 -23)">
	<path id="Tracé_1" class="st0" d="M218.8,48.2H237c3,0,6.1,0.6,8.8,2c2.6,1.3,4.8,3.1,6.6,5.3c1.9,2.3,3.3,5,4.2,7.8
		c2,6.3,2,13-0.1,19.2c-1,2.9-2.4,5.5-4.4,7.8c-1.8,2.2-4.1,4-6.7,5.2c-2.7,1.3-5.6,1.9-8.6,1.9h-18.3L218.8,48.2z M224,92.6h10.9
		c2.5,0,4.9-0.4,7.2-1.4c2.1-0.9,4.1-2.2,5.7-3.9c1.7-1.8,3-3.9,3.8-6.2c0.9-2.7,1.4-5.5,1.4-8.4c0.1-3-0.4-6-1.4-8.8
		c-0.8-2.3-2.1-4.4-3.8-6.2c-1.6-1.6-3.6-2.9-5.7-3.6c-2.3-0.8-4.7-1.2-7.1-1.2H224V92.6z"/>
	<path id="Tracé_2" class="st0" d="M309,62.2c0,2.4-0.6,4.8-1.7,6.9c-1.2,2.2-3,4-5.2,5.2c1.1,0.3,2.2,0.8,3.1,1.5
		c0.8,0.6,1.4,1.4,1.9,2.3c0.5,0.9,0.8,1.9,1,2.9c0.2,1,0.2,2.1,0.2,3.1v7.5c0,1.1,0.1,2.1,0.4,3.1c0.3,0.9,0.6,1.9,1.1,2.7h-5.7
		c-0.5-0.8-0.8-1.8-0.9-2.8c-0.1-0.9-0.2-1.8-0.2-2.8V84c0-1-0.2-1.9-0.5-2.8c-0.3-0.9-0.9-1.8-1.6-2.5c-0.8-0.8-1.7-1.4-2.8-1.8
		c-1.3-0.5-2.8-0.7-4.2-0.7h-14.8v21.1H274V48.2h20.1c2.2,0,4.4,0.4,6.4,1.2c1.7,0.8,3.3,1.9,4.7,3.2c1.2,1.3,2.2,2.8,2.8,4.5
		C308.7,58.8,309,60.5,309,62.2 M279.3,71.7h14.8c1.3,0,2.5-0.2,3.7-0.7c1.1-0.5,2.2-1.2,3.1-2c0.9-0.9,1.6-1.9,2.1-3
		c0.5-1.2,0.8-2.4,0.8-3.7c0-1.3-0.2-2.5-0.7-3.7c-0.5-1.1-1.1-2.1-2-2.9c-0.9-0.8-1.9-1.5-3.1-1.9c-1.2-0.5-2.5-0.7-3.8-0.7h-14.9
		L279.3,71.7z"/>
	<path id="Tracé_3" class="st0" d="M358.4,48.2V53h-27.6v16.6h25.9v4.8h-25.9v18.3h28.8v4.8h-34V48.2H358.4z"/>
	<path id="Tracé_4" class="st0" d="M376.8,82c0.1,1.7,0.5,3.3,1.2,4.9c0.6,1.4,1.6,2.8,2.7,3.8c1.2,1.1,2.5,1.9,4,2.5
		c1.6,0.6,3.3,0.9,5.1,0.9c1.6,0,3.2-0.2,4.7-0.5c1.4-0.3,2.8-0.9,4-1.7c1.1-0.8,2.1-1.8,2.7-3.1c0.7-1.4,1.1-3,1-4.6
		c0-1.3-0.3-2.6-1.1-3.7c-0.8-1.1-1.8-2-2.9-2.6c-1.3-0.8-2.7-1.4-4.1-1.9c-1.5-0.5-3.1-1.1-4.7-1.5c-2-0.6-4-1.2-5.9-2
		c-1.9-0.7-3.7-1.6-5.3-2.8c-1.6-1.1-2.9-2.5-3.9-4.1c-1.9-3.6-2-7.9-0.3-11.5c0.8-1.6,2-2.9,3.4-3.9c1.6-1.1,3.3-1.9,5.2-2.4
		c2.2-0.6,4.4-0.8,6.6-0.8c2.7-0.1,5.4,0.4,8,1.4c1.9,0.8,3.7,2,5.1,3.5c1.2,1.4,2.2,3,2.8,4.7c0.6,1.6,0.9,3.3,1,5h-5.4
		c-0.1-1.5-0.5-3-1.2-4.3c-0.6-1.2-1.5-2.3-2.5-3.2c-1.1-0.9-2.3-1.5-3.6-1.9c-1.4-0.4-2.8-0.6-4.3-0.6c-1.4,0-2.7,0.1-4.1,0.4
		c-1.3,0.3-2.5,0.7-3.6,1.4c-1,0.6-1.9,1.5-2.5,2.5c-0.7,1.1-1,2.4-1,3.7c0,1.4,0.3,2.7,1.1,3.8c0.8,1.1,1.8,2,2.9,2.7
		c1.3,0.8,2.7,1.5,4.2,2c1.6,0.5,3.2,1.1,4.8,1.6c2,0.6,4,1.3,5.9,2c1.9,0.7,3.6,1.6,5.3,2.7c1.5,1.1,2.8,2.4,3.8,4
		c1,1.8,1.5,3.9,1.5,6c0,2.2-0.4,4.3-1.3,6.3c-0.9,1.8-2.1,3.3-3.7,4.5c-1.7,1.3-3.6,2.2-5.6,2.8c-2.3,0.6-4.7,0.9-7.1,0.9
		c-2.3,0-4.6-0.4-6.8-1.2c-2.1-0.8-4.1-1.9-5.8-3.3c-1.7-1.5-3.1-3.3-4.1-5.3c-1.1-2.2-1.7-4.5-1.7-7L376.8,82z"/>
	<path id="Tracé_5" class="st0" d="M425.7,82c0.1,1.7,0.5,3.3,1.2,4.9c0.6,1.4,1.6,2.8,2.7,3.8c1.2,1.1,2.5,1.9,4,2.5
		c1.6,0.6,3.3,0.9,5.1,0.9c1.6,0,3.2-0.2,4.7-0.5c1.4-0.3,2.8-0.9,4-1.7c1.1-0.8,2.1-1.8,2.7-3.1c0.7-1.4,1.1-3,1-4.6
		c0-1.3-0.3-2.6-1.1-3.7c-0.8-1.1-1.8-2-2.9-2.6c-1.3-0.8-2.7-1.4-4.1-1.9c-1.5-0.5-3.1-1.1-4.7-1.5c-2-0.6-4-1.2-5.9-2
		c-1.9-0.7-3.7-1.6-5.3-2.8c-1.6-1.1-2.9-2.5-3.9-4.1c-1.9-3.6-2-7.9-0.3-11.5c0.8-1.6,2-2.9,3.4-3.9c1.6-1.1,3.3-1.9,5.2-2.4
		c2.2-0.6,4.4-0.8,6.6-0.8c2.7-0.1,5.4,0.4,8,1.4c1.9,0.8,3.7,2,5.1,3.5c1.2,1.4,2.2,3,2.8,4.7c0.6,1.6,0.9,3.3,1,5h-5.4
		c-0.1-1.5-0.5-3-1.2-4.3c-0.6-1.2-1.5-2.3-2.5-3.2c-1.1-0.9-2.3-1.5-3.6-1.9c-1.4-0.4-2.8-0.6-4.3-0.6c-1.4,0-2.7,0.1-4.1,0.4
		c-1.3,0.3-2.5,0.7-3.6,1.4c-1,0.6-1.9,1.5-2.5,2.5c-0.7,1.1-1,2.4-1,3.7c0,1.4,0.3,2.7,1.1,3.8c0.8,1.1,1.8,2,2.9,2.7
		c1.3,0.8,2.7,1.5,4.2,2c1.6,0.5,3.2,1.1,4.8,1.6c2,0.6,4,1.3,5.9,2c1.9,0.7,3.6,1.6,5.3,2.7c1.5,1.1,2.8,2.4,3.8,4
		c1,1.8,1.5,3.9,1.5,6c0.1,2.2-0.4,4.3-1.3,6.3c-0.9,1.8-2.1,3.3-3.7,4.5c-1.7,1.3-3.6,2.2-5.6,2.8c-2.3,0.6-4.7,0.9-7.1,0.9
		c-2.3,0-4.6-0.4-6.8-1.2c-2.1-0.8-4.1-1.9-5.8-3.3c-1.7-1.5-3.1-3.3-4.2-5.3c-1.1-2.2-1.7-4.5-1.7-7L425.7,82z"/>
	<path id="Tracé_6" class="st0" d="M110.1,48v44.4h24.7v4.8h-30V48H110.1z"/>
	<path id="Tracé_7" class="st0" d="M186.5,47.1l-2.5,6.8l8.6,24.2h-17.3l-1.7,4.5h20.7l5.4,14.8h5.4L186.5,47.1z"/>
	<path id="Tracé_8" class="st0" d="M144.9,124.5l-5.4,0.2l36.7-101.2l5.3,0.1L144.9,124.5z"/>
</g>
</svg>
